# Blender v2.76 (sub 0) OBJ File: 'wall-flat-tv.blend'
# www.blender.org
mtllib wall-flat-tv.mtl
o hooks_Cube.004
v 21.039043 -23.923241 -4.380884
v 21.039042 -23.923235 -5.237877
v 21.039043 11.951815 -4.380884
v 21.039042 11.951820 -5.237877
v 18.349848 -23.923241 -4.380884
v 18.349848 -23.923235 -5.237877
v 18.349848 11.951815 -4.380884
v 18.349848 11.951820 -5.237877
v 20.897625 -23.923241 -4.522301
v 20.839043 -23.923235 -5.237877
v 20.897625 11.951815 -4.522301
v 20.839043 11.951820 -5.237877
v 18.491264 -23.923241 -4.522301
v 18.549847 -23.923235 -5.237877
v 18.491264 11.951815 -4.522301
v 18.549847 11.951820 -5.237877
v 21.039043 -4.789872 -6.003211
v 21.039043 -4.789878 -4.380884
v 18.349848 -4.789872 -6.003211
v 18.349848 -4.789878 -4.380884
v 20.839043 -4.789872 -6.003211
v 20.897625 -4.789877 -4.522301
v 18.549847 -4.789872 -6.003211
v 18.491264 -4.789877 -4.522301
v 21.039043 -7.437799 -4.380884
v 18.349848 -7.437793 -6.003211
v 20.897625 -7.437799 -4.522301
v 18.549847 -7.437793 -6.003211
v 21.039043 -7.437793 -6.003211
v 18.349848 -7.437799 -4.380884
v 20.839043 -7.437793 -6.003211
v 18.491264 -7.437799 -4.522301
v 21.039043 -6.775813 -6.398750
v 21.039043 -6.113832 -6.497634
v 21.039043 -5.451852 -6.398750
v 18.349848 -6.775818 -4.380884
v 18.349848 -6.113838 -4.380884
v 18.349848 -5.451858 -4.380884
v 20.839043 -6.775813 -6.398750
v 20.839043 -6.113832 -6.497634
v 20.839043 -5.451852 -6.398750
v 18.491264 -6.775818 -4.522301
v 18.491264 -6.113838 -4.522301
v 18.491264 -5.451858 -4.522301
v 21.039043 -5.451858 -4.380884
v 21.039043 -6.113838 -4.380884
v 21.039043 -6.775818 -4.380884
v 18.349848 -5.451852 -6.398750
v 18.349848 -6.113832 -6.497634
v 18.349848 -6.775813 -6.398749
v 20.897625 -5.451858 -4.522301
v 20.897625 -6.113838 -4.522301
v 20.897625 -6.775818 -4.522301
v 18.549847 -5.451852 -6.398750
v 18.549847 -6.113832 -6.497634
v 18.549847 -6.775813 -6.398750
v -21.039043 -23.923241 -4.380884
v -21.039042 -23.923235 -5.237877
v -21.039043 11.951815 -4.380884
v -21.039042 11.951820 -5.237877
v -18.349848 -23.923241 -4.380884
v -18.349848 -23.923235 -5.237877
v -18.349848 11.951815 -4.380884
v -18.349848 11.951820 -5.237877
v -20.897625 -23.923241 -4.522301
v -20.839043 -23.923235 -5.237877
v -20.897625 11.951815 -4.522301
v -20.839043 11.951820 -5.237877
v -18.491264 -23.923241 -4.522301
v -18.549847 -23.923235 -5.237877
v -18.491264 11.951815 -4.522301
v -18.549847 11.951820 -5.237877
v -21.039043 -4.789872 -6.003211
v -21.039043 -4.789877 -4.380884
v -18.349848 -4.789872 -6.003211
v -18.349848 -4.789877 -4.380884
v -20.839043 -4.789872 -6.003211
v -20.897625 -4.789877 -4.522301
v -18.549847 -4.789872 -6.003211
v -18.491264 -4.789877 -4.522301
v -21.039043 -7.437799 -4.380884
v -18.349848 -7.437793 -6.003211
v -20.897625 -7.437799 -4.522301
v -18.549847 -7.437793 -6.003211
v -21.039043 -7.437793 -6.003211
v -18.349848 -7.437799 -4.380884
v -20.839043 -7.437793 -6.003211
v -18.491264 -7.437799 -4.522301
v -21.039043 -6.775813 -6.398750
v -21.039043 -6.113832 -6.497634
v -21.039043 -5.451852 -6.398750
v -18.349848 -6.775818 -4.380884
v -18.349848 -6.113838 -4.380884
v -18.349848 -5.451858 -4.380884
v -20.839043 -6.775813 -6.398750
v -20.839043 -6.113832 -6.497634
v -20.839043 -5.451852 -6.398750
v -18.491264 -6.775818 -4.522301
v -18.491264 -6.113838 -4.522301
v -18.491264 -5.451858 -4.522301
v -21.039043 -5.451858 -4.380884
v -21.039043 -6.113838 -4.380884
v -21.039043 -6.775818 -4.380884
v -18.349848 -5.451852 -6.398750
v -18.349848 -6.113832 -6.497634
v -18.349848 -6.775813 -6.398749
v -20.897625 -5.451858 -4.522301
v -20.897625 -6.113838 -4.522301
v -20.897625 -6.775818 -4.522301
v -18.549847 -5.451852 -6.398750
v -18.549847 -6.113832 -6.497634
v -18.549847 -6.775813 -6.398750
vn 1.000000 -0.000000 -0.000000
vn -1.000000 -0.000000 0.000000
vn -0.000000 0.000000 1.000000
vn -0.998600 -0.001200 0.053300
vn 0.998600 0.001200 0.053300
vn 0.000000 0.000000 -1.000000
vn 0.000000 -1.000000 -0.000000
vn 0.000000 -0.046400 -0.998900
vn -0.000000 1.000000 0.000000
vn -0.000000 0.045700 -0.999000
vn -0.000000 0.512900 -0.858400
vn 0.998600 -0.001200 0.053300
vn -0.999300 -0.010400 0.034900
vn -0.998600 0.001200 0.053300
vn 0.000000 -0.512900 -0.858400
vn 0.999300 0.010400 0.034900
vn 0.999300 -0.010400 0.034900
vn 0.999500 -0.002300 0.030400
vn 0.999500 0.002300 0.030400
vn 0.000000 0.147700 -0.989000
vn 0.000000 -0.147700 -0.989000
vn -0.999300 0.010400 0.034900
vn -0.999500 0.002300 0.030400
vn -0.999500 -0.002300 0.030400
usemtl black-hooks
s off
f 17//1 4//1 3//1 18//1
f 26//2 6//2 5//2 30//2
f 18//3 3//3 7//3 20//3
f 22//4 11//4 12//4 21//4
f 32//5 13//5 14//5 28//5
f 24//6 15//6 11//6 22//6
f 2//7 1//7 9//7 10//7
f 29//8 2//8 10//8 31//8
f 3//9 4//9 12//9 11//9
f 8//9 7//9 15//9 16//9
f 7//9 3//9 11//9 15//9
f 19//10 8//10 16//10 23//10
f 5//7 6//7 14//7 13//7
f 1//7 5//7 13//7 9//7
f 48//11 19//11 23//11 54//11
f 4//10 17//10 21//10 12//10
f 44//6 24//6 22//6 51//6
f 15//12 24//12 23//12 16//12
f 51//13 22//13 21//13 41//13
f 45//3 18//3 20//3 38//3
f 8//2 19//2 20//2 7//2
f 35//1 17//1 18//1 45//1
f 2//1 29//1 25//1 1//1
f 1//3 25//3 30//3 5//3
f 9//14 27//14 31//14 10//14
f 13//6 32//6 27//6 9//6
f 6//8 26//8 28//8 14//8
f 33//15 29//15 31//15 39//15
f 42//16 32//16 28//16 56//16
f 50//2 26//2 30//2 36//2
f 19//2 48//2 38//2 20//2
f 48//2 49//2 37//2 38//2
f 49//2 50//2 36//2 37//2
f 24//17 44//17 54//17 23//17
f 44//18 43//18 55//18 54//18
f 43//19 42//19 56//19 55//19
f 17//11 35//11 41//11 21//11
f 35//20 34//20 40//20 41//20
f 34//21 33//21 39//21 40//21
f 29//1 33//1 47//1 25//1
f 33//1 34//1 46//1 47//1
f 34//1 35//1 45//1 46//1
f 25//3 47//3 36//3 30//3
f 47//3 46//3 37//3 36//3
f 46//3 45//3 38//3 37//3
f 27//22 53//22 39//22 31//22
f 53//23 52//23 40//23 39//23
f 52//24 51//24 41//24 40//24
f 32//6 42//6 53//6 27//6
f 42//6 43//6 52//6 53//6
f 43//6 44//6 51//6 52//6
f 26//15 50//15 56//15 28//15
f 50//21 49//21 55//21 56//21
f 49//20 48//20 54//20 55//20
f 73//2 74//2 59//2 60//2
f 82//1 86//1 61//1 62//1
f 74//3 76//3 63//3 59//3
f 78//12 77//12 68//12 67//12
f 88//14 84//14 70//14 69//14
f 80//6 78//6 67//6 71//6
f 58//7 66//7 65//7 57//7
f 85//8 87//8 66//8 58//8
f 59//9 67//9 68//9 60//9
f 64//9 72//9 71//9 63//9
f 63//9 71//9 67//9 59//9
f 75//10 79//10 72//10 64//10
f 61//7 69//7 70//7 62//7
f 57//7 65//7 69//7 61//7
f 104//11 110//11 79//11 75//11
f 60//10 68//10 77//10 73//10
f 100//6 107//6 78//6 80//6
f 71//4 72//4 79//4 80//4
f 107//17 97//17 77//17 78//17
f 101//3 94//3 76//3 74//3
f 64//1 63//1 76//1 75//1
f 91//2 101//2 74//2 73//2
f 58//2 57//2 81//2 85//2
f 57//3 61//3 86//3 81//3
f 65//5 66//5 87//5 83//5
f 69//6 65//6 83//6 88//6
f 62//8 70//8 84//8 82//8
f 89//15 95//15 87//15 85//15
f 98//22 112//22 84//22 88//22
f 106//1 92//1 86//1 82//1
f 75//1 76//1 94//1 104//1
f 104//1 94//1 93//1 105//1
f 105//1 93//1 92//1 106//1
f 80//13 79//13 110//13 100//13
f 100//24 110//24 111//24 99//24
f 99//23 111//23 112//23 98//23
f 73//11 77//11 97//11 91//11
f 91//20 97//20 96//20 90//20
f 90//21 96//21 95//21 89//21
f 85//2 81//2 103//2 89//2
f 89//2 103//2 102//2 90//2
f 90//2 102//2 101//2 91//2
f 81//3 86//3 92//3 103//3
f 103//3 92//3 93//3 102//3
f 102//3 93//3 94//3 101//3
f 83//16 87//16 95//16 109//16
f 109//19 95//19 96//19 108//19
f 108//18 96//18 97//18 107//18
f 88//6 83//6 109//6 98//6
f 98//6 109//6 108//6 99//6
f 99//6 108//6 107//6 100//6
f 82//15 84//15 112//15 106//15
f 106//21 112//21 111//21 105//21
f 105//20 111//20 110//20 104//20
o tv-screen_Cube.003
v -47.016384 -24.371109 4.183099
v -47.016384 29.327635 4.183095
v 47.016384 -24.371109 4.183099
v 47.016384 29.327635 4.183095
vt 1.000000 0.000000
vt 1.000000 1.000000
vt 0.000000 1.000000
vt 0.000000 0.000000
vn 0.000000 0.000000 1.000000
usemtl screen-tv
s off
f 115/1/25 116/2/25 114/3/25 113/4/25
o tv_Cube.001
v -51.400002 -31.831642 3.416753
v -51.400002 -31.831642 4.388147
v -51.400002 -31.323801 3.416749
v -51.400002 -31.323803 4.388142
v 51.400002 -31.831642 3.416753
v 51.400002 -31.831642 4.388147
v 51.400002 -31.323801 3.416749
v 51.400002 -31.323803 4.388142
v -44.057144 -31.323803 4.388142
v -36.714287 -31.323803 4.388142
v -29.371431 -31.323803 4.388142
v -22.028572 -31.323803 4.388142
v -14.685716 -31.323803 4.388142
v -7.342858 -31.323803 4.388142
v -0.000000 -31.323803 4.388142
v 7.342858 -31.323803 4.388142
v 14.685716 -31.323803 4.388142
v 22.028572 -31.323803 4.388142
v 29.371431 -31.323803 4.388142
v 36.714287 -31.323803 4.388142
v 44.057144 -31.323803 4.388142
v 44.057144 -31.323801 3.416749
v 36.714287 -31.323801 3.416749
v 29.371431 -31.323801 3.416749
v 22.028572 -31.323801 3.416749
v 14.685716 -31.323801 3.416749
v 7.342858 -31.323801 3.416749
v 0.000000 -31.323801 3.416749
v -7.342858 -31.323801 3.416749
v -14.685716 -31.323801 3.416749
v -22.028572 -31.323801 3.416749
v -29.371431 -31.323801 3.416749
v -36.714287 -31.323801 3.416749
v -44.057144 -31.323801 3.416749
v 44.057144 -32.082752 4.388147
v 36.714287 -32.473022 4.388147
v 29.371431 -32.666119 4.388147
v 22.028572 -32.789768 4.388147
v 14.685716 -32.869106 4.388147
v 7.342858 -32.913918 4.388147
v 0.000000 -32.928452 4.388147
v -7.342858 -32.913918 4.388147
v -14.685716 -32.869106 4.388147
v -22.028572 -32.789768 4.388147
v -29.371431 -32.666119 4.388147
v -36.714287 -32.473022 4.388147
v -44.057144 -32.082752 4.388147
v -44.057144 -32.082752 3.416753
v -36.714287 -32.473022 3.416753
v -29.371431 -32.666119 3.416753
v -22.028572 -32.789768 3.416753
v -14.685716 -32.869106 3.416753
v -7.342858 -32.913918 3.416753
v -0.000000 -32.928452 3.416753
v 7.342858 -32.913918 3.416753
v 14.685716 -32.869106 3.416753
v 22.028572 -32.789768 3.416753
v 29.371431 -32.666119 3.416753
v 36.714287 -32.473022 3.416753
v 44.057144 -32.082752 3.416753
v -51.400002 -31.323803 3.416753
v -51.400002 -31.323803 4.388146
v -51.400002 32.930000 3.416748
v -51.400002 32.930000 4.388142
v 51.400002 -31.323803 3.416753
v 51.400002 -31.323803 4.388146
v 51.400002 32.930000 3.416748
v 51.400002 32.930000 4.388142
v -51.168262 -31.095009 3.416753
v -51.168262 32.701202 3.416748
v 51.168262 -31.095009 3.416753
v 51.168262 32.701202 3.416748
v -46.442177 -30.970106 -1.167895
v -46.442177 29.402311 -1.167900
v 46.442177 -30.970106 -1.167895
v 46.442177 29.402311 -1.167900
v -44.196400 -30.744740 -1.167895
v -35.153908 26.708288 -1.167900
v 44.196400 -30.744740 -1.167895
v 35.153908 26.708288 -1.167900
v -33.665131 -30.744740 -4.380882
v -32.338703 18.773321 -4.380887
v 33.665131 -30.744740 -4.380882
v 32.338703 18.773321 -4.380887
v -47.016384 -24.371109 4.388146
v -47.016384 29.327635 4.388142
v 47.016384 -24.371109 4.388146
v 47.016384 29.327635 4.388142
v -47.016384 -24.371109 4.183099
v -47.016384 29.327635 4.183095
v 47.016384 -24.371109 4.183099
v 47.016384 29.327635 4.183095
vt 0.622729 0.192531
vt 0.705013 0.234768
vt 0.687691 0.270382
vt 0.632233 0.157419
vt 0.816860 0.234733
vt 0.834189 0.270362
vt 0.899191 0.192530
vt 0.889679 0.157422
vt 0.632493 0.157241
vt 0.889418 0.157241
vt 0.813522 0.243206
vt 0.860645 0.192097
vt 0.388093 0.155015
vt 0.581002 0.155015
vt 0.572093 0.155250
vt 0.397002 0.155250
vt 0.687629 0.270498
vt 0.834252 0.270478
vt 0.567860 0.155675
vt 0.401235 0.155675
vt 0.581002 0.275274
vt 0.572093 0.269055
vt 0.388093 0.275274
vt 0.397002 0.269055
vt 0.548008 0.155675
vt 0.421087 0.155675
vt 0.550815 0.263977
vt 0.418281 0.263977
vt 0.885734 0.305538
vt 0.870842 0.861512
vt 0.144664 0.861512
vt 0.129771 0.305538
vt 0.545508 0.249019
vt 0.898795 0.979251
vt 0.116774 0.979251
vt 0.144613 0.861730
vt 0.870957 0.861730
vt 0.423588 0.249019
vt 0.661081 0.192259
vt 0.832620 0.186291
vt 0.689107 0.186412
vt 0.708348 0.243286
vt -0.313816 0.022197
vt 1.317762 0.022197
vt 1.248188 0.125065
vt -0.244242 0.125065
vt 0.712285 0.248646
vt 0.809583 0.248564
vt 0.010224 0.010704
vt 0.010224 0.015526
vt 0.916686 0.015526
vt 0.986413 0.015526
vt 0.986413 0.010704
vt 0.079952 0.008319
vt 0.916686 0.008319
vt 0.079952 0.015526
vt 0.846958 0.015526
vt 0.846958 0.004613
vt 0.777230 0.015526
vt 0.777230 0.002780
vt 0.707502 0.015526
vt 0.707502 0.001605
vt 0.637774 0.015526
vt 0.637774 0.000852
vt 0.568046 0.015526
vt 0.568046 0.000427
vt 0.498319 0.015526
vt 0.498319 0.000289
vt 0.428591 0.015526
vt 0.428591 0.000427
vt 0.358863 0.015526
vt 0.358863 0.000852
vt 0.289135 0.015526
vt 0.289135 0.001605
vt 0.219407 0.015526
vt 0.219407 0.002780
vt 0.149679 0.015526
vt 0.149679 0.004613
vn -1.000000 0.000000 0.000000
vn 0.000000 1.000000 0.000000
vn 1.000000 0.000000 0.000000
vn 0.000000 -1.000000 -0.000000
vn -0.000000 0.000000 -1.000000
vn 0.000000 0.000000 1.000000
vn 0.000000 -0.999600 -0.027200
vn -0.696300 -0.000000 -0.717800
vn 0.000000 0.811700 -0.584100
vn 0.696300 -0.000000 -0.717800
vn -0.414000 0.040100 -0.909400
vn 0.000000 0.375300 -0.926900
vn 0.414000 0.040100 -0.909400
vn -0.034200 -0.999400 0.000000
vn 0.034200 -0.999400 0.000000
vn 0.053100 -0.998600 0.000000
vn 0.026300 -0.999700 -0.000000
vn 0.016800 -0.999900 0.000000
vn 0.010800 -0.999900 -0.000000
vn 0.006100 -1.000000 -0.000000
vn 0.002000 -1.000000 0.000000
vn -0.002000 -1.000000 0.000000
vn -0.006100 -1.000000 -0.000000
vn -0.010800 -0.999900 -0.000000
vn -0.016800 -0.999900 0.000000
vn -0.026300 -0.999700 -0.000000
vn -0.053100 -0.998600 0.000000
usemtl tv-black
s off
f 178/5/26 180/6/26 179/7/26 177/8/26
f 180/6/27 184/9/27 183/10/27 179/7/27
f 184/9/28 182/11/28 181/12/28 183/10/28
f 182/11/29 178/5/29 177/8/29 181/12/29
f 181/12/30 177/8/30 185/13/30 187/14/30
f 182/11/31 184/9/31 204/15/31 203/16/31
f 187/17/32 185/18/32 189/19/32 191/20/32
f 177/8/30 179/7/30 186/21/30 185/13/30
f 183/10/30 181/12/30 187/14/30 188/22/30
f 179/7/30 183/10/30 188/22/30 186/21/30
f 191/20/30 189/19/30 193/23/30 195/24/30
f 185/18/33 186/25/33 190/26/33 189/19/33
f 186/25/34 188/27/34 192/28/34 190/26/34
f 188/27/35 187/17/35 191/20/35 192/28/35
f 195/24/29 193/23/29 197/29/29 199/30/29
f 189/19/30 190/26/30 194/31/30 193/23/30
f 190/26/30 192/28/30 196/32/30 194/31/30
f 192/28/30 191/20/30 195/24/30 196/32/30
f 197/33/30 198/34/30 200/35/30 199/36/30
f 193/23/36 194/31/36 198/37/36 197/29/36
f 194/38/37 196/39/37 200/40/37 198/41/37
f 196/32/38 195/24/38 199/30/38 200/42/38
f 201/43/27 203/16/27 207/44/27 205/45/27
f 184/9/31 180/6/31 202/46/31 204/15/31
f 180/6/31 178/5/31 201/43/31 202/46/31
f 178/47/31 182/48/31 203/49/31 201/50/31
f 202/46/28 201/43/28 205/45/28 206/51/28
f 204/15/29 202/46/29 206/51/29 208/52/29
f 203/16/26 204/15/26 208/52/26 207/44/26
usemtl decoration
f 118/53/26 120/54/26 119/54/26 117/53/26
f 137/55/27 124/56/27 123/56/27 138/55/27
f 124/56/28 122/57/28 121/57/28 123/56/28
f 163/58/39 118/53/39 117/53/39 164/58/39
f 176/59/30 138/55/30 123/56/30 121/57/30
f 163/58/31 125/60/31 120/54/31 118/53/31
f 122/57/31 124/56/31 137/55/31 151/59/31
f 151/59/31 137/55/31 136/61/31 152/62/31
f 152/62/31 136/61/31 135/63/31 153/64/31
f 153/64/31 135/63/31 134/65/31 154/66/31
f 154/66/31 134/65/31 133/67/31 155/68/31
f 155/68/31 133/67/31 132/69/31 156/70/31
f 156/70/31 132/69/31 131/71/31 157/72/31
f 157/72/31 131/71/31 130/73/31 158/74/31
f 158/74/31 130/73/31 129/75/31 159/76/31
f 159/76/31 129/75/31 128/77/31 160/78/31
f 160/78/31 128/77/31 127/79/31 161/80/31
f 161/80/31 127/79/31 126/81/31 162/82/31
f 162/82/31 126/81/31 125/60/31 163/58/31
f 117/53/30 119/54/30 150/60/30 164/58/30
f 164/58/30 150/60/30 149/81/30 165/82/30
f 165/82/30 149/81/30 148/79/30 166/80/30
f 166/80/30 148/79/30 147/77/30 167/78/30
f 167/78/30 147/77/30 146/75/30 168/76/30
f 168/76/30 146/75/30 145/73/30 169/74/30
f 169/74/30 145/73/30 144/71/30 170/72/30
f 170/72/30 144/71/30 143/69/30 171/70/30
f 171/70/30 143/69/30 142/67/30 172/68/30
f 172/68/30 142/67/30 141/65/30 173/66/30
f 173/66/30 141/65/30 140/63/30 174/64/30
f 174/64/30 140/63/30 139/61/30 175/62/30
f 175/62/30 139/61/30 138/55/30 176/59/30
f 122/57/40 151/59/40 176/59/40 121/57/40
f 151/59/41 152/62/41 175/62/41 176/59/41
f 152/62/42 153/64/42 174/64/42 175/62/42
f 153/64/43 154/66/43 173/66/43 174/64/43
f 154/66/44 155/68/44 172/68/44 173/66/44
f 155/68/45 156/70/45 171/70/45 172/68/45
f 156/70/46 157/72/46 170/72/46 171/70/46
f 157/72/47 158/74/47 169/74/47 170/72/47
f 158/74/48 159/76/48 168/76/48 169/74/48
f 159/76/49 160/78/49 167/78/49 168/76/49
f 160/78/50 161/80/50 166/80/50 167/78/50
f 161/80/51 162/82/51 165/82/51 166/80/51
f 162/82/52 163/58/52 164/58/52 165/82/52
f 120/54/27 125/60/27 150/60/27 119/54/27
f 125/60/27 126/81/27 149/81/27 150/60/27
f 126/81/27 127/79/27 148/79/27 149/81/27
f 127/79/27 128/77/27 147/77/27 148/79/27
f 128/77/27 129/75/27 146/75/27 147/77/27
f 129/75/27 130/73/27 145/73/27 146/75/27
f 130/73/27 131/71/27 144/71/27 145/73/27
f 131/71/27 132/69/27 143/69/27 144/71/27
f 132/69/27 133/67/27 142/67/27 143/69/27
f 133/67/27 134/65/27 141/65/27 142/67/27
f 134/65/27 135/63/27 140/63/27 141/65/27
f 135/63/27 136/61/27 139/61/27 140/63/27
f 136/61/27 137/55/27 138/55/27 139/61/27
