# 3ds Max Wavefront OBJ Exporter v0.97b - (c)2007 guruware
# File Created: 10.10.2016 13:22:12

mtllib Cover 40W.mtl

#
# object COVER
#

v  240.5000 42.0643 -600.0000
v  238.9846 65.1646 0.0000
v  240.5000 42.0642 0.0000
v  171.3031 182.3614 0.0000
v  195.0352 160.4349 -600.0000
v  171.3031 182.3615 -600.0000
v  195.0352 160.4348 0.0000
v  215.3890 132.8935 0.0000
v  215.3890 132.8936 -600.0000
v  230.5312 100.5971 0.0000
v  230.5312 100.5972 -600.0000
v  238.9846 65.1647 -600.0000
v  240.0000 42.0642 0.0000
v  240.0000 42.0643 -600.0000
v  170.9988 181.9648 -600.0000
v  194.6637 160.1001 0.0000
v  170.9988 181.9647 0.0000
v  238.4889 65.0994 -600.0000
v  238.4889 65.0993 0.0000
v  230.0594 100.4317 -600.0000
v  230.0594 100.4316 0.0000
v  214.9600 132.6366 0.0000
v  214.9600 132.6367 -600.0000
v  194.6637 160.1002 -600.0000
v  -154.0057 194.6243 0.0000
v  -171.3031 182.3615 -600.0000
v  -171.3031 182.3614 0.0000
v  154.0057 194.6243 0.0000
v  154.0057 194.6244 -599.9999
v  129.2630 209.0590 -599.9999
v  129.2630 209.0589 0.0000
v  103.5959 220.7398 -599.9999
v  103.5959 220.7397 0.0000
v  77.4400 229.6363 -599.9999
v  77.4400 229.6362 0.0000
v  51.2113 235.8016 -599.9999
v  51.2113 235.8015 0.0000
v  25.2885 239.3616 0.0000
v  25.2885 239.3616 -599.9999
v  -0.0000 240.5001 -599.9999
v  -0.0000 240.5000 0.0000
v  -25.2885 239.3616 -599.9999
v  -25.2885 239.3616 0.0000
v  -51.2113 235.8016 -599.9999
v  -51.2113 235.8015 0.0000
v  -77.4400 229.6363 -599.9999
v  -77.4400 229.6362 0.0000
v  -103.5959 220.7398 -599.9999
v  -103.5959 220.7397 0.0000
v  -129.2630 209.0590 -599.9999
v  -129.2630 209.0589 0.0000
v  -154.0057 194.6244 -599.9999
v  -238.9846 65.1646 0.0000
v  -240.5000 42.0643 -600.0000
v  -240.5000 42.0642 0.0000
v  -195.0352 160.4349 -600.0000
v  -195.0352 160.4348 0.0000
v  -215.3890 132.8936 -600.0000
v  -215.3890 132.8935 0.0000
v  -230.5312 100.5972 -600.0000
v  -230.5312 100.5971 0.0000
v  -238.9846 65.1647 -600.0000
v  -240.0000 42.0643 -600.0000
v  -240.0000 42.0642 0.0000
v  -170.9988 181.9648 -600.0000
v  -194.6637 160.1001 0.0000
v  -194.6637 160.1002 -600.0000
v  -238.4889 65.0994 -600.0000
v  -238.4889 65.0993 0.0000
v  -230.0594 100.4316 0.0000
v  -230.0594 100.4317 -600.0000
v  -214.9600 132.6366 0.0000
v  -214.9600 132.6367 -600.0000
v  -170.9988 181.9647 0.0000
v  0.0000 240.0000 0.0000
v  -25.2435 238.8637 -599.9999
v  -0.0000 240.0001 -599.9999
v  -153.7321 194.2059 -599.9999
v  -153.7321 194.2058 0.0000
v  -129.0334 208.6148 -599.9999
v  -129.0334 208.6147 0.0000
v  -103.4118 220.2749 0.0000
v  -103.4118 220.2749 -599.9999
v  -77.3024 229.1555 0.0000
v  -77.3024 229.1556 -599.9999
v  -51.1204 235.3098 0.0000
v  -51.1204 235.3099 -599.9999
v  -25.2435 238.8636 0.0000
v  153.7321 194.2059 -599.9999
v  25.2435 238.8637 -599.9999
v  51.1204 235.3099 -599.9999
v  77.3024 229.1556 -599.9999
v  103.4118 220.2749 -599.9999
v  129.0334 208.6148 -599.9999
v  153.7321 194.2058 0.0000
v  129.0334 208.6147 0.0000
v  103.4118 220.2749 0.0000
v  77.3024 229.1555 0.0000
v  51.1204 235.3098 0.0000
v  25.2435 238.8636 0.0000
# 100 vertices

vn 1.0000 -0.0000 -0.0000
vn 0.9914 0.1306 0.0000
vn 0.6087 0.7934 0.0000
vn 0.7429 0.6694 0.0000
vn 0.8580 0.5137 0.0000
vn 0.9436 0.3310 0.0000
vn 0.0000 -1.0000 -0.0000
vn -0.6087 -0.7934 -0.0000
vn -0.7429 -0.6694 -0.0000
vn -1.0000 0.0000 -0.0000
vn -0.9914 -0.1306 -0.0000
vn -1.0000 0.0000 0.0000
vn -0.9436 -0.3310 -0.0000
vn -0.8580 -0.5137 -0.0000
vn -0.5472 0.8370 0.0000
vn -0.6087 0.7934 0.0000
vn 0.5472 0.8370 0.0000
vn 0.4593 0.8883 0.0000
vn 0.3681 0.9298 0.0000
vn 0.2752 0.9614 0.0000
vn 0.1820 0.9833 0.0000
vn 0.0899 0.9960 0.0000
vn -0.0000 1.0000 0.0000
vn -0.0899 0.9960 0.0000
vn -0.1820 0.9833 0.0000
vn -0.2752 0.9614 0.0000
vn -0.3681 0.9298 0.0000
vn -0.4593 0.8883 0.0000
vn -0.9914 0.1306 0.0000
vn -1.0000 -0.0000 0.0000
vn -0.7429 0.6694 0.0000
vn -0.8580 0.5137 0.0000
vn -0.9436 0.3310 0.0000
vn 0.6087 -0.7934 -0.0000
vn 0.7429 -0.6694 -0.0000
vn 0.9914 -0.1306 -0.0000
vn 1.0000 -0.0000 0.0000
vn 1.0000 0.0000 0.0000
vn 0.9436 -0.3310 -0.0000
vn 0.8580 -0.5137 -0.0000
vn 0.0899 -0.9960 -0.0000
vn 0.5472 -0.8370 -0.0000
vn 0.4593 -0.8883 -0.0000
vn 0.3681 -0.9298 -0.0000
vn 0.2752 -0.9614 -0.0000
vn 0.1820 -0.9833 -0.0000
vn 0.0000 0.0000 -1.0000
vn 0.0000 -0.0000 1.0000
vn -0.5472 -0.8370 -0.0000
vn -0.0899 -0.9960 -0.0000
vn -0.0000 -1.0000 -0.0000
vn -0.1820 -0.9833 -0.0000
vn -0.2752 -0.9614 -0.0000
vn -0.3681 -0.9298 -0.0000
vn -0.4593 -0.8883 -0.0000
# 55 vertex normals

vt 4.9862 2.9054 0.0000
vt 0.4533 3.0673 0.0000
vt 0.4533 2.9054 0.0000
vt 0.4533 4.0898 0.0000
vt 4.9862 3.8342 0.0000
vt 4.9862 4.0898 0.0000
vt 0.4533 3.8342 0.0000
vt 0.4533 3.5786 0.0000
vt 4.9862 3.5786 0.0000
vt 0.4533 3.3230 0.0000
vt 4.9862 3.3230 0.0000
vt 4.9862 3.0673 0.0000
vt 0.0000 0.0000 0.0000
vt 0.0000 4.5329 0.0000
vt 0.0038 0.0000 0.0000
vt 0.0038 4.5329 0.0000
vt 0.4533 8.1564 0.0000
vt 4.9862 7.9016 0.0000
vt 4.9862 8.1564 0.0000
vt 4.9862 6.9754 0.0000
vt 0.4533 7.1369 0.0000
vt 0.4533 6.9754 0.0000
vt 4.9862 7.1369 0.0000
vt 0.4533 7.3918 0.0000
vt 4.9862 7.3918 0.0000
vt 4.9862 7.6467 0.0000
vt 0.4533 7.6467 0.0000
vt 0.4533 7.9016 0.0000
vt 4.9862 5.2889 0.0000
vt 0.4533 5.1398 0.0000
vt 4.9862 5.1398 0.0000
vt 0.4533 7.8790 0.0000
vt 4.9862 7.7299 0.0000
vt 4.9862 7.8790 0.0000
vt 0.4533 7.7299 0.0000
vt 0.4533 7.5265 0.0000
vt 4.9862 7.5265 0.0000
vt 0.4533 7.3230 0.0000
vt 4.9862 7.3230 0.0000
vt 0.4533 7.1196 0.0000
vt 4.9862 7.1196 0.0000
vt 0.4533 6.9162 0.0000
vt 4.9862 6.9162 0.0000
vt 4.9862 6.7128 0.0000
vt 0.4533 6.7128 0.0000
vt 0.4533 6.5094 0.0000
vt 4.9862 6.5094 0.0000
vt 0.4533 6.3060 0.0000
vt 4.9862 6.3060 0.0000
vt 0.4533 6.1025 0.0000
vt 4.9862 6.1025 0.0000
vt 0.4533 5.8991 0.0000
vt 4.9862 5.8991 0.0000
vt 0.4533 5.6957 0.0000
vt 4.9862 5.6957 0.0000
vt 0.4533 5.4923 0.0000
vt 4.9862 5.4923 0.0000
vt 0.4533 5.2889 0.0000
vt 0.0038 -0.0000 0.0000
vt 0.0000 -0.0000 0.0000
vt 0.4533 12.9956 0.0000
vt 4.9862 12.7926 0.0000
vt 4.9862 12.9956 0.0000
vt 4.9862 11.7773 0.0000
vt 0.4533 11.6284 0.0000
vt 4.9862 11.6284 0.0000
vt 0.4533 11.7773 0.0000
vt 4.9862 11.9803 0.0000
vt 0.4533 11.9803 0.0000
vt 0.4533 12.1834 0.0000
vt 4.9862 12.1834 0.0000
vt 0.4533 12.3865 0.0000
vt 4.9862 12.3865 0.0000
vt 0.4533 12.5895 0.0000
vt 4.9862 12.5895 0.0000
vt 0.4533 12.7926 0.0000
vt 0.6555 0.1656 0.0000
vt 0.5228 0.0761 0.0000
vt 0.5251 0.0731 0.0000
vt 0.0038 -0.9838 0.0000
vt 0.0115 -0.8093 0.0000
vt 0.0000 -0.9838 0.0000
vt 0.0152 -0.8098 0.0000
vt 0.0753 -0.5416 0.0000
vt 0.0789 -0.5428 0.0000
vt 0.1897 -0.2976 0.0000
vt 0.1930 -0.2995 0.0000
vt 0.3435 -0.0895 0.0000
vt 0.3463 -0.0921 0.0000
vt 3.6224 -0.8093 0.0000
vt 3.6301 -0.9838 0.0000
vt 3.6339 -0.9838 0.0000
vt 3.6187 -0.8098 0.0000
vt 3.5586 -0.5416 0.0000
vt 3.5550 -0.5428 0.0000
vt 3.4442 -0.2976 0.0000
vt 3.4409 -0.2995 0.0000
vt 3.2904 -0.0895 0.0000
vt 3.2876 -0.0921 0.0000
vt 3.1111 0.0761 0.0000
vt 3.1088 0.0731 0.0000
vt 2.9804 0.1688 0.0000
vt 2.9784 0.1656 0.0000
vt 2.7935 0.2778 0.0000
vt 2.7918 0.2745 0.0000
vt 2.5996 0.3661 0.0000
vt 2.5982 0.3626 0.0000
vt 2.4020 0.4333 0.0000
vt 2.4010 0.4296 0.0000
vt 2.2038 0.4799 0.0000
vt 2.2032 0.4761 0.0000
vt 2.0080 0.5067 0.0000
vt 2.0077 0.5030 0.0000
vt 1.8170 0.5154 0.0000
vt 1.8170 0.5116 0.0000
vt 1.6259 0.5067 0.0000
vt 1.6262 0.5030 0.0000
vt 1.4301 0.4799 0.0000
vt 1.4307 0.4761 0.0000
vt 1.2319 0.4333 0.0000
vt 1.2329 0.4296 0.0000
vt 1.0343 0.3661 0.0000
vt 1.0357 0.3626 0.0000
vt 0.8404 0.2778 0.0000
vt 0.8421 0.2745 0.0000
vt 0.6535 0.1688 0.0000
vt -0.0395 0.1656 0.0000
vt -0.1722 0.0761 0.0000
vt -0.1699 0.0731 0.0000
vt -0.6912 -0.9838 0.0000
vt -0.6836 -0.8093 0.0000
vt -0.6950 -0.9838 0.0000
vt -0.6798 -0.8098 0.0000
vt -0.6197 -0.5416 0.0000
vt -0.6161 -0.5428 0.0000
vt -0.5053 -0.2976 0.0000
vt -0.5021 -0.2995 0.0000
vt -0.3515 -0.0895 0.0000
vt -0.3487 -0.0921 0.0000
vt 2.9274 -0.8093 0.0000
vt 2.9351 -0.9838 0.0000
vt 2.9389 -0.9838 0.0000
vt 2.9237 -0.8098 0.0000
vt 2.8636 -0.5416 0.0000
vt 2.8600 -0.5428 0.0000
vt 2.7492 -0.2976 0.0000
vt 2.7459 -0.2995 0.0000
vt 2.5954 -0.0895 0.0000
vt 2.5926 -0.0921 0.0000
vt 2.4161 0.0761 0.0000
vt 2.4138 0.0731 0.0000
vt 2.2854 0.1688 0.0000
vt 2.2834 0.1656 0.0000
vt 2.0985 0.2778 0.0000
vt 2.0968 0.2745 0.0000
vt 1.9046 0.3661 0.0000
vt 1.9032 0.3626 0.0000
vt 1.7070 0.4333 0.0000
vt 1.7059 0.4296 0.0000
vt 1.5088 0.4799 0.0000
vt 1.5081 0.4761 0.0000
vt 1.3130 0.5067 0.0000
vt 1.3126 0.5030 0.0000
vt 1.1219 0.5154 0.0000
vt 1.1219 0.5116 0.0000
vt 0.9309 0.5067 0.0000
vt 0.9312 0.5030 0.0000
vt 0.7350 0.4799 0.0000
vt 0.7357 0.4761 0.0000
vt 0.5369 0.4333 0.0000
vt 0.5379 0.4296 0.0000
vt 0.3393 0.3661 0.0000
vt 0.3407 0.3626 0.0000
vt 0.1454 0.2778 0.0000
vt 0.1471 0.2745 0.0000
vt -0.0416 0.1688 0.0000
vt 0.4533 1.2183 0.0000
vt 4.9862 1.3672 0.0000
vt 0.4533 1.3672 0.0000
vt 4.9862 0.2031 0.0000
vt 0.4533 0.0000 0.0000
vt 4.9862 0.0000 0.0000
vt 0.4533 0.2031 0.0000
vt 4.9862 0.4061 0.0000
vt 0.4533 0.4061 0.0000
vt 4.9862 0.6092 0.0000
vt 0.4533 0.6092 0.0000
vt 0.4533 0.8122 0.0000
vt 4.9862 0.8122 0.0000
vt 4.9862 1.0153 0.0000
vt 0.4533 1.0153 0.0000
vt 4.9862 1.2183 0.0000
# 192 texture coords

g COVER
usemtl wire_191191191
s 1
f 1/1/1 2/2/2 3/3/1 
f 4/4/3 5/5/4 6/6/3 
f 7/7/4 5/5/4 4/4/3 
f 8/8/5 5/5/4 7/7/4 
f 8/8/5 9/9/5 5/5/4 
f 10/10/6 9/9/5 8/8/5 
f 10/10/6 11/11/6 9/9/5 
f 10/10/6 12/12/2 11/11/6 
f 2/2/2 12/12/2 10/10/6 
f 2/2/2 1/1/1 12/12/2 
s 2
f 13/13/7 14/14/7 3/15/7 
f 1/16/7 3/15/7 14/14/7 
s 1
f 15/17/8 16/18/9 17/19/8 
f 13/20/10 18/21/11 14/22/12 
f 19/23/11 18/21/11 13/20/10 
f 19/23/11 20/24/13 18/21/11 
f 21/25/13 20/24/13 19/23/11 
f 22/26/14 20/24/13 21/25/13 
f 22/26/14 23/27/14 20/24/13 
f 16/18/9 23/27/14 22/26/14 
f 16/18/9 24/28/9 23/27/14 
f 16/18/9 15/17/8 24/28/9 
s 2
f 25/29/15 26/30/16 27/31/16 
f 6/32/3 28/33/17 4/34/3 
f 29/35/17 28/33/17 6/32/3 
f 30/36/18 28/33/17 29/35/17 
f 30/36/18 31/37/18 28/33/17 
f 32/38/19 31/37/18 30/36/18 
f 32/38/19 33/39/19 31/37/18 
f 34/40/20 33/39/19 32/38/19 
f 34/40/20 35/41/20 33/39/19 
f 36/42/21 35/41/20 34/40/20 
f 36/42/21 37/43/21 35/41/20 
f 36/42/21 38/44/22 37/43/21 
f 39/45/22 38/44/22 36/42/21 
f 40/46/23 38/44/22 39/45/22 
f 40/46/23 41/47/23 38/44/22 
f 42/48/24 41/47/23 40/46/23 
f 42/48/24 43/49/24 41/47/23 
f 44/50/25 43/49/24 42/48/24 
f 44/50/25 45/51/25 43/49/24 
f 46/52/26 45/51/25 44/50/25 
f 46/52/26 47/53/26 45/51/25 
f 48/54/27 47/53/26 46/52/26 
f 48/54/27 49/55/27 47/53/26 
f 50/56/28 49/55/27 48/54/27 
f 50/56/28 51/57/28 49/55/27 
f 50/56/28 25/29/15 51/57/28 
f 52/58/15 25/29/15 50/56/28 
f 26/30/16 25/29/15 52/58/15 
s 1
f 53/12/29 54/3/30 55/1/30 
f 56/7/31 27/6/16 26/4/16 
f 56/7/31 57/5/31 27/6/16 
f 58/8/32 57/5/31 56/7/31 
f 58/8/32 59/9/32 57/5/31 
f 60/10/33 59/9/32 58/8/32 
f 60/10/33 61/11/33 59/9/32 
f 60/10/33 53/12/29 61/11/33 
f 62/2/29 53/12/29 60/10/33 
f 54/3/30 53/12/29 62/2/29 
s 2
f 55/59/7 63/14/7 64/60/7 
f 63/14/7 55/59/7 54/16/7 
s 1
f 65/19/34 66/28/35 67/18/35 
f 68/23/36 64/22/37 63/20/38 
f 68/23/36 69/21/36 64/22/37 
f 68/23/36 70/24/39 69/21/36 
f 71/25/39 70/24/39 68/23/36 
f 71/25/39 72/27/40 70/24/39 
f 73/26/40 72/27/40 71/25/39 
f 73/26/40 66/28/35 72/27/40 
f 67/18/35 66/28/35 73/26/40 
f 66/28/35 65/19/34 74/17/34 
s 2
f 75/61/7 76/62/41 77/63/7 
f 78/64/42 74/65/34 65/66/34 
f 78/64/42 79/67/42 74/65/34 
f 80/68/43 79/67/42 78/64/42 
f 80/68/43 81/69/43 79/67/42 
f 80/68/43 82/70/44 81/69/43 
f 83/71/44 82/70/44 80/68/43 
f 83/71/44 84/72/45 82/70/44 
f 85/73/45 84/72/45 83/71/44 
f 85/73/45 86/74/46 84/72/45 
f 87/75/46 86/74/46 85/73/45 
f 76/62/41 86/74/46 87/75/46 
f 76/62/41 88/76/41 86/74/46 
f 76/62/41 75/61/7 88/76/41 
s 4
f 89/77/47 6/78/47 15/79/47 
f 14/80/47 12/81/47 1/82/47 
f 18/83/47 12/81/47 14/80/47 
f 18/83/47 11/84/47 12/81/47 
f 20/85/47 11/84/47 18/83/47 
f 20/85/47 9/86/47 11/84/47 
f 23/87/47 9/86/47 20/85/47 
f 23/87/47 5/88/47 9/86/47 
f 24/89/47 5/88/47 23/87/47 
f 24/89/47 6/78/47 5/88/47 
f 15/79/47 6/78/47 24/89/47 
f 62/90/47 63/91/47 54/92/47 
f 62/90/47 68/93/47 63/91/47 
f 60/94/47 68/93/47 62/90/47 
f 60/94/47 71/95/47 68/93/47 
f 58/96/47 71/95/47 60/94/47 
f 58/96/47 73/97/47 71/95/47 
f 56/98/47 73/97/47 58/96/47 
f 56/98/47 67/99/47 73/97/47 
f 26/100/47 67/99/47 56/98/47 
f 26/100/47 65/101/47 67/99/47 
f 52/102/47 65/101/47 26/100/47 
f 52/102/47 78/103/47 65/101/47 
f 50/104/47 78/103/47 52/102/47 
f 50/104/47 80/105/47 78/103/47 
f 48/106/47 80/105/47 50/104/47 
f 48/106/47 83/107/47 80/105/47 
f 46/108/47 83/107/47 48/106/47 
f 46/108/47 85/109/47 83/107/47 
f 44/110/47 85/109/47 46/108/47 
f 44/110/47 87/111/47 85/109/47 
f 42/112/47 87/111/47 44/110/47 
f 42/112/47 76/113/47 87/111/47 
f 40/114/47 76/113/47 42/112/47 
f 40/114/47 77/115/47 76/113/47 
f 39/116/47 77/115/47 40/114/47 
f 39/116/47 90/117/47 77/115/47 
f 36/118/47 90/117/47 39/116/47 
f 36/118/47 91/119/47 90/117/47 
f 34/120/47 91/119/47 36/118/47 
f 34/120/47 92/121/47 91/119/47 
f 32/122/47 92/121/47 34/120/47 
f 32/122/47 93/123/47 92/121/47 
f 30/124/47 93/123/47 32/122/47 
f 30/124/47 94/125/47 93/123/47 
f 29/126/47 94/125/47 30/124/47 
f 29/126/47 89/77/47 94/125/47 
f 6/78/47 89/77/47 29/126/47 
f 79/127/48 27/128/48 74/129/48 
f 64/130/48 53/131/48 55/132/48 
f 69/133/48 53/131/48 64/130/48 
f 69/133/48 61/134/48 53/131/48 
f 70/135/48 61/134/48 69/133/48 
f 70/135/48 59/136/48 61/134/48 
f 72/137/48 59/136/48 70/135/48 
f 72/137/48 57/138/48 59/136/48 
f 66/139/48 57/138/48 72/137/48 
f 66/139/48 27/128/48 57/138/48 
f 74/129/48 27/128/48 66/139/48 
f 2/140/48 13/141/48 3/142/48 
f 2/140/48 19/143/48 13/141/48 
f 10/144/48 19/143/48 2/140/48 
f 10/144/48 21/145/48 19/143/48 
f 8/146/48 21/145/48 10/144/48 
f 8/146/48 22/147/48 21/145/48 
f 7/148/48 22/147/48 8/146/48 
f 7/148/48 16/149/48 22/147/48 
f 4/150/48 16/149/48 7/148/48 
f 4/150/48 17/151/48 16/149/48 
f 28/152/48 17/151/48 4/150/48 
f 28/152/48 95/153/48 17/151/48 
f 31/154/48 95/153/48 28/152/48 
f 31/154/48 96/155/48 95/153/48 
f 33/156/48 96/155/48 31/154/48 
f 33/156/48 97/157/48 96/155/48 
f 35/158/48 97/157/48 33/156/48 
f 35/158/48 98/159/48 97/157/48 
f 37/160/48 98/159/48 35/158/48 
f 37/160/48 99/161/48 98/159/48 
f 38/162/48 99/161/48 37/160/48 
f 38/162/48 100/163/48 99/161/48 
f 41/164/48 100/163/48 38/162/48 
f 41/164/48 75/165/48 100/163/48 
f 43/166/48 75/165/48 41/164/48 
f 43/166/48 88/167/48 75/165/48 
f 45/168/48 88/167/48 43/166/48 
f 45/168/48 86/169/48 88/167/48 
f 47/170/48 86/169/48 45/168/48 
f 47/170/48 84/171/48 86/169/48 
f 49/172/48 84/171/48 47/170/48 
f 49/172/48 82/173/48 84/171/48 
f 51/174/48 82/173/48 49/172/48 
f 51/174/48 81/175/48 82/173/48 
f 25/176/48 81/175/48 51/174/48 
f 25/176/48 79/127/48 81/175/48 
f 27/128/48 79/127/48 25/176/48 
s 8
f 95/177/49 15/178/8 17/179/8 
f 90/180/50 75/181/51 77/182/51 
f 90/180/50 100/183/50 75/181/51 
f 91/184/52 100/183/50 90/180/50 
f 91/184/52 99/185/52 100/183/50 
f 92/186/53 99/185/52 91/184/52 
f 92/186/53 98/187/53 99/185/52 
f 92/186/53 97/188/54 98/187/53 
f 93/189/54 97/188/54 92/186/53 
f 94/190/55 97/188/54 93/189/54 
f 94/190/55 96/191/55 97/188/54 
f 89/192/49 96/191/55 94/190/55 
f 89/192/49 95/177/49 96/191/55 
f 15/178/8 95/177/49 89/192/49 
# 0 polygons - 196 triangles

